<svg xmlns="http://www.w3.org/2000/svg" width="484" height="520">
  <rect width="484" height="520" fill="#010409"/>
  <rect x="10" y="10" width="464" height="464" rx="8" fill="none" stroke="#39d353" stroke-width="1.5" opacity="0.6"/>
  <rect x="15" y="15" width="36" height="36" rx="5" fill="#0d1117"/>
  <rect x="53" y="15" width="36" height="36" rx="5" fill="#0d1117"/>
  <rect x="91" y="15" width="36" height="36" rx="5" fill="#0d1117"/>
  <rect x="129" y="15" width="36" height="36" rx="5" fill="#0d1117"/>
  <rect x="167" y="15" width="36" height="36" rx="5" fill="#0d1117"/>
  <rect x="205" y="15" width="36" height="36" rx="5" fill="#0d1117"/>
  <rect x="243" y="15" width="36" height="36" rx="5" fill="#0d1117"/>
  <rect x="281" y="15" width="36" height="36" rx="5" fill="#0d1117"/>
  <rect x="319" y="15" width="36" height="36" rx="5" fill="#0d1117"/>
  <rect x="357" y="15" width="36" height="36" rx="5" fill="#0d1117"/>
  <rect x="395" y="15" width="36" height="36" rx="5" fill="#0d1117"/>
  <rect x="433" y="15" width="36" height="36" rx="5" fill="#0d1117"/>
  <rect x="15" y="53" width="36" height="36" rx="5" fill="#0d1117"/>
  <rect x="53" y="53" width="36" height="36" rx="5" fill="#0d1117"/>
  <rect x="91" y="53" width="36" height="36" rx="5" fill="#0d1117"/>
  <rect x="129" y="53" width="36" height="36" rx="5" fill="#0d1117"/>
  <rect x="167" y="53" width="36" height="36" rx="5" fill="#0d1117"/>
  <rect x="205" y="53" width="36" height="36" rx="5" fill="#0d1117"/>
  <rect x="243" y="53" width="36" height="36" rx="5" fill="#0d1117"/>
  <rect x="281" y="53" width="36" height="36" rx="5" fill="#0d1117"/>
  <rect x="319" y="53" width="36" height="36" rx="5" fill="#0d1117"/>
  <rect x="357" y="53" width="36" height="36" rx="5" fill="#0d1117"/>
  <rect x="395" y="53" width="36" height="36" rx="5" fill="#0d1117"/>
  <rect x="433" y="53" width="36" height="36" rx="5" fill="#0d1117"/>
  <rect x="15" y="91" width="36" height="36" rx="5" fill="#0d1117"/>
  <rect x="53" y="91" width="36" height="36" rx="5" fill="#0d1117"/>
  <rect x="91" y="91" width="36" height="36" rx="5" fill="#0d1117"/>
  <rect x="129" y="91" width="36" height="36" rx="5" fill="#0d1117"/>
  <rect x="167" y="91" width="36" height="36" rx="5" fill="#0d1117"/>
  <rect x="205" y="91" width="36" height="36" rx="5" fill="#0d1117"/>
  <rect x="243" y="91" width="36" height="36" rx="5" fill="#0d1117"/>
  <rect x="281" y="91" width="36" height="36" rx="5" fill="#0d1117"/>
  <rect x="319" y="91" width="36" height="36" rx="5" fill="#0d1117"/>
  <rect x="357" y="91" width="36" height="36" rx="5" fill="#0d1117"/>
  <rect x="395" y="91" width="36" height="36" rx="5" fill="#0d1117"/>
  <rect x="433" y="91" width="36" height="36" rx="5" fill="#0d1117"/>
  <rect x="15" y="129" width="36" height="36" rx="5" fill="#0d1117"/>
  <rect x="53" y="129" width="36" height="36" rx="5" fill="#0d1117"/>
  <rect x="91" y="129" width="36" height="36" rx="5" fill="#0d1117"/>
  <rect x="129" y="129" width="36" height="36" rx="5" fill="#0d1117"/>
  <rect x="167" y="129" width="36" height="36" rx="5" fill="#0d1117"/>
  <rect x="205" y="129" width="36" height="36" rx="5" fill="#0d1117"/>
  <rect x="243" y="129" width="36" height="36" rx="5" fill="#0d1117"/>
  <rect x="281" y="129" width="36" height="36" rx="5" fill="#0d1117"/>
  <rect x="319" y="129" width="36" height="36" rx="5" fill="#0d1117"/>
  <rect x="357" y="129" width="36" height="36" rx="5" fill="#0d1117"/>
  <rect x="395" y="129" width="36" height="36" rx="5" fill="#0d1117"/>
  <rect x="433" y="129" width="36" height="36" rx="5" fill="#0d1117"/>
  <rect x="15" y="167" width="36" height="36" rx="5" fill="#0d1117"/>
  <rect x="53" y="167" width="36" height="36" rx="5" fill="#0d1117"/>
  <rect x="91" y="167" width="36" height="36" rx="5" fill="#0d1117"/>
  <rect x="129" y="167" width="36" height="36" rx="5" fill="#0d1117"/>
  <rect x="167" y="167" width="36" height="36" rx="5" fill="#0d1117"/>
  <rect x="205" y="167" width="36" height="36" rx="5" fill="#0d1117"/>
  <rect x="243" y="167" width="36" height="36" rx="5" fill="#0d1117"/>
  <rect x="281" y="167" width="36" height="36" rx="5" fill="#0d1117"/>
  <rect x="319" y="167" width="36" height="36" rx="5" fill="#0d1117"/>
  <rect x="357" y="167" width="36" height="36" rx="5" fill="#0d1117"/>
  <rect x="395" y="167" width="36" height="36" rx="5" fill="#0d1117"/>
  <rect x="433" y="167" width="36" height="36" rx="5" fill="#0d1117"/>
  <rect x="15" y="205" width="36" height="36" rx="5" fill="#0d1117"/>
  <rect x="53" y="205" width="36" height="36" rx="5" fill="#0d1117"/>
  <rect x="91" y="205" width="36" height="36" rx="5" fill="#0d1117"/>
  <rect x="129" y="205" width="36" height="36" rx="5" fill="#0d1117"/>
  <rect x="167" y="205" width="36" height="36" rx="5" fill="#0d1117"/>
  <rect x="205" y="205" width="36" height="36" rx="5" fill="#0d1117"/>
  <rect x="243" y="205" width="36" height="36" rx="5" fill="#0d1117"/>
  <rect x="281" y="205" width="36" height="36" rx="5" fill="#0d1117"/>
  <rect x="319" y="205" width="36" height="36" rx="5" fill="#0d1117"/>
  <rect x="357" y="205" width="36" height="36" rx="5" fill="#0d1117"/>
  <rect x="395" y="205" width="36" height="36" rx="5" fill="#0d1117"/>
  <rect x="433" y="205" width="36" height="36" rx="5" fill="#0d1117"/>
  <rect x="15" y="243" width="36" height="36" rx="5" fill="#0d1117"/>
  <rect x="53" y="243" width="36" height="36" rx="5" fill="#0d1117"/>
  <rect x="91" y="243" width="36" height="36" rx="5" fill="#0d1117"/>
  <rect x="129" y="243" width="36" height="36" rx="5" fill="#0d1117"/>
  <rect x="167" y="243" width="36" height="36" rx="5" fill="#0d1117"/>
  <rect x="205" y="243" width="36" height="36" rx="5" fill="#0d1117"/>
  <rect x="243" y="243" width="36" height="36" rx="5" fill="#0d1117"/>
  <rect x="281" y="243" width="36" height="36" rx="5" fill="#0d1117"/>
  <rect x="319" y="243" width="36" height="36" rx="5" fill="#0d1117"/>
  <rect x="357" y="243" width="36" height="36" rx="5" fill="#0d1117"/>
  <rect x="395" y="243" width="36" height="36" rx="5" fill="#0d1117"/>
  <rect x="433" y="243" width="36" height="36" rx="5" fill="#0d1117"/>
  <rect x="15" y="281" width="36" height="36" rx="5" fill="#0d1117"/>
  <rect x="53" y="281" width="36" height="36" rx="5" fill="#0d1117"/>
  <rect x="91" y="281" width="36" height="36" rx="5" fill="#0d1117"/>
  <rect x="129" y="281" width="36" height="36" rx="5" fill="#0d1117"/>
  <rect x="167" y="281" width="36" height="36" rx="5" fill="#0d1117"/>
  <rect x="205" y="281" width="36" height="36" rx="5" fill="#0d1117"/>
  <rect x="243" y="281" width="36" height="36" rx="5" fill="#0d1117"/>
  <rect x="281" y="281" width="36" height="36" rx="5" fill="#0d1117"/>
  <rect x="319" y="281" width="36" height="36" rx="5" fill="#0d1117"/>
  <rect x="357" y="281" width="36" height="36" rx="5" fill="#0d1117"/>
  <rect x="395" y="281" width="36" height="36" rx="5" fill="#0d1117"/>
  <rect x="433" y="281" width="36" height="36" rx="5" fill="#0d1117"/>
  <rect x="15" y="319" width="36" height="36" rx="5" fill="#0d1117"/>
  <rect x="53" y="319" width="36" height="36" rx="5" fill="#0d1117"/>
  <rect x="91" y="319" width="36" height="36" rx="5" fill="#0d1117"/>
  <rect x="129" y="319" width="36" height="36" rx="5" fill="#0d1117"/>
  <rect x="167" y="319" width="36" height="36" rx="5" fill="#0d1117"/>
  <rect x="205" y="319" width="36" height="36" rx="5" fill="#0d1117"/>
  <rect x="243" y="319" width="36" height="36" rx="5" fill="#0d1117"/>
  <rect x="281" y="319" width="36" height="36" rx="5" fill="#0d1117"/>
  <rect x="319" y="319" width="36" height="36" rx="5" fill="#0d1117"/>
  <rect x="357" y="319" width="36" height="36" rx="5" fill="#0d1117"/>
  <rect x="395" y="319" width="36" height="36" rx="5" fill="#0d1117"/>
  <rect x="433" y="319" width="36" height="36" rx="5" fill="#0d1117"/>
  <rect x="15" y="357" width="36" height="36" rx="5" fill="#0d1117"/>
  <rect x="53" y="357" width="36" height="36" rx="5" fill="#0d1117"/>
  <rect x="91" y="357" width="36" height="36" rx="5" fill="#0d1117"/>
  <rect x="129" y="357" width="36" height="36" rx="5" fill="#0d1117"/>
  <rect x="167" y="357" width="36" height="36" rx="5" fill="#0d1117"/>
  <rect x="205" y="357" width="36" height="36" rx="5" fill="#161b22"/>
  <circle cx="223" cy="375" r="10.64" fill="#ff4444"/>
  <rect x="222" y="361" width="2" height="7" rx="1" fill="#26a641"/>
  <rect x="243" y="357" width="36" height="36" rx="5" fill="#0d1117"/>
  <rect x="281" y="357" width="36" height="36" rx="5" fill="#0d1117"/>
  <rect x="319" y="357" width="36" height="36" rx="5" fill="#0d1117"/>
  <rect x="357" y="357" width="36" height="36" rx="5" fill="#0d1117"/>
  <rect x="395" y="357" width="36" height="36" rx="5" fill="#0d1117"/>
  <rect x="433" y="357" width="36" height="36" rx="5" fill="#0d1117"/>
  <rect x="15" y="395" width="36" height="36" rx="5" fill="#0d1117"/>
  <rect x="53" y="395" width="36" height="36" rx="5" fill="#0d1117"/>
  <rect x="91" y="395" width="36" height="36" rx="5" fill="#0d1117"/>
  <rect x="129" y="395" width="36" height="36" rx="5" fill="#0d1117"/>
  <rect x="167" y="395" width="36" height="36" rx="5" fill="#0d1117"/>
  <rect x="205" y="395" width="36" height="36" rx="5" fill="#0d1117"/>
  <rect x="243" y="395" width="36" height="36" rx="5" fill="#0d1117"/>
  <rect x="281" y="395" width="36" height="36" rx="5" fill="#0d1117"/>
  <rect x="319" y="395" width="36" height="36" rx="5" fill="#0d1117"/>
  <rect x="357" y="395" width="36" height="36" rx="5" fill="#26a641"/>
  <rect x="395" y="395" width="36" height="36" rx="5" fill="#0d1117"/>
  <rect x="433" y="395" width="36" height="36" rx="5" fill="#0d1117"/>
  <rect x="15" y="433" width="36" height="36" rx="5" fill="#0d1117"/>
  <rect x="53" y="433" width="36" height="36" rx="5" fill="#0d1117"/>
  <rect x="91" y="433" width="36" height="36" rx="5" fill="#0d1117"/>
  <rect x="129" y="433" width="36" height="36" rx="5" fill="#0d1117"/>
  <rect x="167" y="433" width="36" height="36" rx="5" fill="#0d1117"/>
  <rect x="205" y="433" width="36" height="36" rx="5" fill="#0d1117"/>
  <rect x="243" y="433" width="36" height="36" rx="5" fill="#39d353"/>
  <circle cx="252.64" cy="444.16" r="3" fill="#0d1117"/>
  <circle cx="252.64" cy="457.84" r="3" fill="#0d1117"/>
  <rect x="281" y="433" width="36" height="36" rx="5" fill="#26a641"/>
  <rect x="319" y="433" width="36" height="36" rx="5" fill="#26a641"/>
  <rect x="357" y="433" width="36" height="36" rx="5" fill="#26a641"/>
  <rect x="395" y="433" width="36" height="36" rx="5" fill="#0d1117"/>
  <rect x="433" y="433" width="36" height="36" rx="5" fill="#0d1117"/>
  <text x="242" y="494" text-anchor="middle" fill="#7d8590" font-family="monospace" font-size="13">Score: 20  ·  Moves: 13</text>
</svg>